<svg width="38" height="46" viewBox="0 0 38 46" fill="none" xmlns="http://www.w3.org/2000/svg">
<path d="M19 8.41666L20.1042 7.31249C19.8112 7.01988 19.4141 6.85553 19 6.85553C18.586 6.85553 18.1888 7.01988 17.8959 7.31249L19 8.41666ZM19 25.0833L17.8959 26.1875C18.1888 26.4801 18.586 26.6445 19 26.6445C19.4141 26.6445 19.8112 26.4801 20.1042 26.1875L19 25.0833ZM13.7292 11.4792C13.4532 11.7754 13.3029 12.1671 13.3101 12.5719C13.3172 12.9767 13.4812 13.3629 13.7675 13.6492C14.0538 13.9355 14.44 14.0995 14.8448 14.1066C15.2496 14.1137 15.6413 13.9635 15.9375 13.6875L13.7292 11.4792ZM22.0625 13.6875C22.2056 13.841 22.3781 13.9641 22.5698 14.0495C22.7614 14.1349 22.9683 14.1809 23.1781 14.1846C23.3879 14.1883 23.5963 14.1497 23.7909 14.0711C23.9854 13.9925 24.1622 13.8755 24.3105 13.7272C24.4589 13.5788 24.5759 13.402 24.6545 13.2075C24.733 13.0129 24.7716 12.8045 24.7679 12.5947C24.7642 12.3849 24.7183 12.178 24.6329 11.9864C24.5475 11.7947 24.4244 11.6222 24.2709 11.4792L22.0625 13.6875ZM15.9375 19.8125C15.7945 19.659 15.622 19.5358 15.4303 19.4504C15.2387 19.365 15.0318 19.3191 14.822 19.3154C14.6122 19.3117 14.4038 19.3503 14.2092 19.4289C14.0147 19.5075 13.8379 19.6245 13.6895 19.7728C13.5412 19.9212 13.4242 20.0979 13.3456 20.2925C13.267 20.4871 13.2284 20.6954 13.2321 20.9052C13.2358 21.115 13.2818 21.3219 13.3672 21.5136C13.4526 21.7053 13.5757 21.8778 13.7292 22.0208L15.9375 19.8125ZM24.2709 22.0208C24.4244 21.8778 24.5475 21.7053 24.6329 21.5136C24.7183 21.3219 24.7642 21.115 24.7679 20.9052C24.7716 20.6954 24.733 20.4871 24.6545 20.2925C24.5759 20.0979 24.4589 19.9212 24.3105 19.7728C24.1622 19.6245 23.9854 19.5075 23.7909 19.4289C23.5963 19.3503 23.3879 19.3117 23.1781 19.3154C22.9683 19.3191 22.7614 19.365 22.5698 19.4504C22.3781 19.5358 22.2056 19.659 22.0625 19.8125L24.2709 22.0208ZM0.770874 18.8333V27.1667H3.89587V18.8333H0.770874ZM37.2292 27.1667V18.8333H34.1042V27.1667H37.2292ZM17.4375 8.41666V25.0833H20.5625V8.41666H17.4375ZM17.8959 7.31249L13.7292 11.4792L15.9375 13.6875L20.1042 9.52082L17.8959 7.31249ZM17.8959 9.52082L22.0625 13.6875L24.2709 11.4792L20.1042 7.31249L17.8959 9.52082ZM20.1042 23.9792L15.9375 19.8125L13.7292 22.0208L17.8959 26.1875L20.1042 23.9792ZM20.1042 26.1875L24.2709 22.0208L22.0625 19.8125L17.8959 23.9792L20.1042 26.1875ZM37.2292 18.8333C37.2292 13.9986 35.3086 9.36199 31.89 5.94336C28.4714 2.52472 23.8347 0.604156 19 0.604156V3.72916C23.0059 3.72916 26.8477 5.32048 29.6803 8.15307C32.5129 10.9856 34.1042 14.8275 34.1042 18.8333H37.2292ZM19 45.3958C21.3939 45.3958 23.7644 44.9243 25.976 44.0082C28.1877 43.0921 30.1973 41.7494 31.89 40.0566C33.5827 38.3639 34.9255 36.3543 35.8416 34.1427C36.7577 31.931 37.2292 29.5605 37.2292 27.1667H34.1042C34.1042 31.1725 32.5129 35.0143 29.6803 37.8469C26.8477 40.6795 23.0059 42.2708 19 42.2708V45.3958ZM0.770874 27.1667C0.770874 32.0013 2.69144 36.638 6.11007 40.0566C9.5287 43.4753 14.1654 45.3958 19 45.3958V42.2708C14.9942 42.2708 11.1524 40.6795 8.31978 37.8469C5.4872 35.0143 3.89587 31.1725 3.89587 27.1667H0.770874ZM3.89587 18.8333C3.89587 14.8275 5.4872 10.9856 8.31978 8.15307C11.1524 5.32048 14.9942 3.72916 19 3.72916V0.604156C14.1654 0.604156 9.5287 2.52472 6.11007 5.94336C2.69144 9.36199 0.770874 13.9986 0.770874 18.8333H3.89587Z" fill="#2B9348"/>
</svg>
